<?xml version="1.0" encoding="utf-8"?><svg viewBox="0 0 53 55" xmlns="http://www.w3.org/2000/svg" xmlns:xlink="http://www.w3.org/1999/xlink"><style>:root>svg{display:none}:root>svg:target{display:block}</style><svg fill="none" viewBox="0 0 30 30" id="accordeon-close" xmlns="http://www.w3.org/2000/svg"><path fill="#F4F4F4" d="M0 0h30v30H0z"/><path fill="currentColor" d="M24 14v2H6v-2z"/></svg><svg fill="none" viewBox="0 0 30 30" id="accordeon-open" xmlns="http://www.w3.org/2000/svg"><path fill="#F4F4F4" d="M0 0h30v30H0z"/><path d="M14 6h2v18h-2V6z" fill="currentColor"/><path d="M24 14v2H6v-2h18z" fill="currentColor"/></svg><svg fill="none" viewBox="0 0 26 31" id="advantages-svg-1" xmlns="http://www.w3.org/2000/svg"><path d="M12.754 30.29C5.71 30.29 0 24.58 0 17.536 0 10.493 5.71 4.783 12.754 4.783c7.043 0 12.753 5.71 12.753 12.753-.008 7.04-5.713 12.746-12.753 12.754zm0-22.319a9.565 9.565 0 109.565 9.565 9.576 9.576 0 00-9.565-9.565zm1.594 9.565a1.594 1.594 0 01-3.189 0v-4.782a1.594 1.594 0 113.189 0v4.782zm10.034-8.44h-.003l-2.06-2.06a1.594 1.594 0 012.254-2.253l.647.647a2 2 0 010 2.828l-.838.839zm-6.846-7.502c0 .88-.713 1.594-1.594 1.594H9.565a1.594 1.594 0 110-3.188h6.377c.88 0 1.594.714 1.594 1.594z" fill="currentColor"/></svg><svg fill="none" viewBox="0 0 32 32" id="advantages-svg-2" xmlns="http://www.w3.org/2000/svg"><path stroke="currentColor" stroke-width="2" d="M1 4.2h4.154v12.933H1zM9.615 10.6h4.154v12.933H9.615zM18.231 8.467h4.154V21.4h-4.154zM26.846 14.867H31V27.8h-4.154z"/><rect x="27.733" y="10.667" width="2.133" height="4.267" rx="1.067" fill="currentColor"/><rect x="19.2" y="4.267" width="2.133" height="4.267" rx="1.067" fill="currentColor"/><rect x="10.667" y="6.4" width="2.133" height="4.267" rx="1.067" fill="currentColor"/><rect x="2.133" width="2.133" height="4.267" rx="1.067" fill="currentColor"/><rect x="27.733" y="27.733" width="2.133" height="4.267" rx="1.067" fill="currentColor"/><rect x="19.2" y="21.333" width="2.133" height="4.267" rx="1.067" fill="currentColor"/><rect x="10.667" y="23.467" width="2.133" height="4.267" rx="1.067" fill="currentColor"/><rect x="2.133" y="17.067" width="2.133" height="4.267" rx="1.067" fill="currentColor"/></svg><svg fill="none" viewBox="0 0 33 35" id="advantages-svg-3" xmlns="http://www.w3.org/2000/svg"><path d="M11.947 16.775l3.349 3.358a.5.5 0 00.715-.008l5.582-5.83M2.327 5.91c3.43.554 9.239.17 12.941-4.452.512-.64 1.635-.6 2.137.049 1.93 2.494 6.01 5.333 12.652 4.352.575-.085 1.125.3 1.172.879.588 7.36-1.54 21.327-14.495 26.248a.944.944 0 01-.698-.006C10.286 30.59-.047 22.323 1.086 6.836c.045-.61.637-1.022 1.241-.925z" stroke="currentColor" stroke-width="2" stroke-linecap="round"/></svg><svg fill="none" viewBox="0 0 32 24" id="advantages-svg-4" xmlns="http://www.w3.org/2000/svg"><path d="M11.056 1.398A.5.5 0 0111.545 1h8.225a.5.5 0 01.49.398l1.51 7.286a.5.5 0 01-.489.602H10.034a.5.5 0 01-.49-.602l1.511-7.286zM2.521 15.113a.5.5 0 01.49-.399h8.225a.5.5 0 01.49.399l1.51 7.285a.5.5 0 01-.49.602H1.502a.5.5 0 01-.49-.602l1.511-7.285zm17.067 0a.5.5 0 01.49-.399h8.224a.5.5 0 01.49.399l1.511 7.285a.5.5 0 01-.49.602H18.567a.5.5 0 01-.49-.602l1.512-7.285z" stroke="currentColor" stroke-width="2"/></svg><svg fill="none" viewBox="0 0 32 35" id="advantages-svg-5" xmlns="http://www.w3.org/2000/svg"><path d="M28.294 13.321h-.75v-1.44C27.544 5.33 22.29 0 15.83 0 9.373 0 4.12 5.33 4.12 11.88v1.441h-.413C1.663 13.321 0 15.008 0 17.081v5.939c0 2.073 1.663 3.76 3.706 3.76h2.585c.929 0 1.684-.767 1.684-1.71V15.03c0-.942-.755-1.709-1.684-1.709h-.15v-1.44c0-5.42 4.347-9.83 9.69-9.83 5.344 0 9.691 4.41 9.691 9.83v1.45a1.702 1.702 0 00-1.497 1.699v10.041c0 .878.656 1.603 1.497 1.698v.356c0 2.079-1.667 3.77-3.716 3.77h-2.434C18.88 29.698 17.555 28.84 16 28.84c-1.972 0-3.577 1.381-3.577 3.08 0 1.698 1.605 3.08 3.577 3.08 1.555 0 2.88-.859 3.372-2.055h2.434c3.164 0 5.738-2.61 5.738-5.82v-.345h.75c2.043 0 3.706-1.687 3.706-3.76v-5.94c0-2.072-1.663-3.759-3.706-3.759zM5.954 24.729H3.706c-.929 0-1.684-.767-1.684-1.709v-5.94c0-.942.755-1.708 1.684-1.708h2.248v9.357zM16 32.949c-.916 0-1.555-.542-1.555-1.03 0-.486.639-1.029 1.555-1.029.916 0 1.555.543 1.555 1.03s-.639 1.03-1.555 1.03zm13.978-9.929c0 .942-.755 1.709-1.684 1.709h-2.248v-9.357h2.248c.929 0 1.684.766 1.684 1.709v5.939z" fill="currentColor"/></svg><svg fill="none" viewBox="0 0 28 22" id="burger" xmlns="http://www.w3.org/2000/svg"><path d="M0 1.2A1.2 1.2 0 011.2 0h25.156a1.2 1.2 0 010 2.4H1.2A1.2 1.2 0 010 1.2zM0 10.8a1.2 1.2 0 011.2-1.2h25.156a1.2 1.2 0 010 2.4H1.2A1.2 1.2 0 010 10.8zM0 20.4a1.2 1.2 0 011.2-1.2h25.156a1.2 1.2 0 110 2.4H1.2A1.2 1.2 0 010 20.4z" fill="currentColor"/></svg><svg fill="none" viewBox="0 0 52 55" id="footer-download-1" xmlns="http://www.w3.org/2000/svg"><path d="M48.873.6H3a3 3 0 00-3 3v47.423a3 3 0 003 3h45.873a3 3 0 003-3V3.601a3 3 0 00-3-3z" fill="currentColor"/><path d="M14.509 28.42v6.75l9.398 1.385V28.42h-9.398zM23.907 18.05l-9.398 1.386v6.753h9.398v-8.138zM37.105 26.188V16.011L26.09 17.628v8.56h11.015zM26.09 36.996l11.015 1.617V28.42H26.09v8.577z" fill="#294570"/></svg><svg fill="none" viewBox="0 0 53 55" id="footer-download-2" xmlns="http://www.w3.org/2000/svg"><path d="M49.392.6H3.896a3 3 0 00-3 3v47.423a3 3 0 003 3h45.496a3 3 0 003-3V3.601a3 3 0 00-3-3z" fill="currentColor"/><path d="M38.284 27.411v-.352c-.004-2.933-2.169-5.306-4.828-5.301-.806 0-1.596.226-2.304.654-.937-4.354-4.893-7.043-8.837-6.01-3.294.862-5.626 4.097-5.647 7.833v.14c-3.477.861-5.666 4.67-4.885 8.504.659 3.248 3.273 5.558 6.289 5.563h18.42c2.856 0 5.167-2.55 5.172-5.694 0-2.382-1.343-4.511-3.364-5.342l-.016.005zm-15.928 6.74c0 .388-.287.704-.639.704-.352 0-.638-.316-.638-.704V30.61c0-.388.286-.704.638-.704.352 0 .639.316.639.704v3.541zm2.806 0c0 .388-.286.704-.638.704-.352 0-.638-.316-.638-.704v-6.045c0-.388.286-.704.638-.704.352 0 .638.316.638.704v6.045zm2.807-.031c0 .388-.286.704-.638.704-.352 0-.638-.316-.638-.704v-1.516c0-.388.286-.704.638-.704.352 0 .638.316.638.704v1.516zm2.807-.077c0 .388-.287.704-.638.704-.352 0-.639-.316-.639-.704v-8.049c0-.388.287-.703.639-.703.351 0 .638.315.638.703v8.05z" fill="#294570"/></svg><svg fill="none" viewBox="0 0 53 55" id="footer-download-3" xmlns="http://www.w3.org/2000/svg"><path d="M49.902.6H3.812a3 3 0 00-3 3v47.423a3 3 0 003 3h46.09a3 3 0 003-3V3.601a3 3 0 00-3-3z" fill="currentColor"/><path d="M34.807 32.256a2.984 2.984 0 01-.876-.557 4.15 4.15 0 01-1.344-2.573c-.062-.49-.041-.986.061-1.469a3.53 3.53 0 01.902-1.688c.294-.3.596-.593.876-.898a.503.503 0 00.061-.665 6.07 6.07 0 00-1.112-1.132 4.699 4.699 0 00-1.79-.857 4.467 4.467 0 00-1.415-.126c-.794.098-1.575.291-2.325.575-.58.22-1.213.249-1.809.08a12.33 12.33 0 00-2.19-.511 4.405 4.405 0 00-2.47.356 4.538 4.538 0 00-1.908 1.651 6.66 6.66 0 00-.928 1.936 8.215 8.215 0 00-.355 2.083c-.037.932.044 1.865.24 2.776.133.6.308 1.188.526 1.76a13.46 13.46 0 002.076 3.772 4.84 4.84 0 001.751 1.442c.433.206.916.277 1.388.202a7.133 7.133 0 001.454-.45c.299-.121.608-.213.924-.273.496-.067 1-.014 1.471.157.508.157.999.346 1.507.485a2.565 2.565 0 002.145-.31 6.868 6.868 0 001.98-2.097 11.824 11.824 0 001.44-2.977.508.508 0 00-.104-.584.484.484 0 00-.176-.108zM26.605 21.927l.267-.027a3.297 3.297 0 001.708-.557 5.46 5.46 0 001.025-.98c.379-.45.675-.967.875-1.526.122-.41.197-.834.223-1.262.027-.256.027-.503.044-.76a.551.551 0 00-.168-.497.521.521 0 00-.502-.113 6.434 6.434 0 00-1.256.449 4.347 4.347 0 00-1.603 1.213 5.79 5.79 0 00-1.182 3.377v.202a.487.487 0 00.169.384.461.461 0 00.4.097z" fill="#294570"/></svg><svg fill="none" viewBox="0 0 53 55" id="footer-download-4" xmlns="http://www.w3.org/2000/svg"><path d="M49.818.6H3.728a3 3 0 00-3 3v47.423a3 3 0 003 3h46.09a3 3 0 003-3V3.601a3 3 0 00-3-3z" fill="currentColor"/><path d="M20.632 17.503a1.707 1.707 0 00-1.666-.084l8.988 9.24 2.94-3.029-10.262-6.127zm-2.494.774a1.906 1.906 0 00-.173.803v16.9c0 .274.06.546.178.793l8.983-9.264-8.988-9.232zm9.816 10.09l-8.974 9.246c.234.11.49.165.747.163.32.004.635-.084.91-.252l10.257-6.137-2.94-3.02zm6.826-2.398l-2.84-1.727-3.158 3.267 3.163 3.267 2.858-1.709c.258-.16.471-.387.62-.657a1.843 1.843 0 000-1.77 1.787 1.787 0 00-.62-.657l-.023-.014z" fill="#294570"/></svg></svg>